<svg width="28" height="28" viewBox="0 0 28 28" fill="none" xmlns="http://www.w3.org/2000/svg">
<path d="M5.83333 25.6667C5.19167 25.6667 4.64236 25.4382 4.18542 24.9813C3.72847 24.5243 3.5 23.975 3.5 23.3334V7.00004C3.5 6.35837 3.72847 5.80907 4.18542 5.35212C4.64236 4.89518 5.19167 4.66671 5.83333 4.66671H7V2.33337H9.33333V4.66671H18.6667V2.33337H21V4.66671H22.1667C22.8083 4.66671 23.3576 4.89518 23.8146 5.35212C24.2715 5.80907 24.5 6.35837 24.5 7.00004V23.3334C24.5 23.975 24.2715 24.5243 23.8146 24.9813C23.3576 25.4382 22.8083 25.6667 22.1667 25.6667H5.83333ZM5.83333 23.3334H22.1667V11.6667H5.83333V23.3334Z" fill="white"/>
<ellipse cx="19.4846" cy="16.2284" rx="1.1462" ry="1.13222" fill="white"/>
<ellipse cx="19.4846" cy="20.7572" rx="1.1462" ry="1.13222" fill="white"/>
<ellipse cx="14.1379" cy="16.2284" rx="1.1462" ry="1.13222" fill="white"/>
<ellipse cx="14.1379" cy="20.7572" rx="1.1462" ry="1.13222" fill="white"/>
<ellipse cx="8.7878" cy="16.2284" rx="1.1462" ry="1.13222" fill="white"/>
<ellipse cx="8.7878" cy="20.7572" rx="1.1462" ry="1.13222" fill="white"/>
</svg>
